<svg width="21" height="18" viewBox="0 0 21 18" fill="none" xmlns="http://www.w3.org/2000/svg">
<g clip-path="url(#clip0_1_42)">
<path d="M0.75 15.0937C6.08561 15.0893 11.398 15.8005 16.547 17.2085C17.274 17.4078 18 16.8643 18 16.1053V15.0937M2.25 0.75V1.50493C2.25 1.70515 2.17098 1.89717 2.03033 2.03875C1.88968 2.18033 1.69891 2.25986 1.5 2.25986H0.75M0.75 2.25986V1.8824C0.75 1.25731 1.254 0.75 1.875 0.75H18.75M0.75 2.25986V11.319M18.75 0.75V1.50493C18.75 1.92165 19.086 2.25986 19.5 2.25986H20.25M18.75 0.75H19.125C19.746 0.75 20.25 1.25731 20.25 1.8824V11.6965C20.25 12.3216 19.746 12.8289 19.125 12.8289H18.75M0.75 11.319V11.6965C0.75 11.9968 0.868527 12.2849 1.0795 12.4972C1.29048 12.7096 1.57663 12.8289 1.875 12.8289H2.25M0.75 11.319H1.5C1.69891 11.319 1.88968 11.3986 2.03033 11.5402C2.17098 11.6817 2.25 11.8738 2.25 12.074V12.8289M18.75 12.8289V12.074C18.75 11.8738 18.829 11.6817 18.9697 11.5402C19.1103 11.3986 19.3011 11.319 19.5 11.319H20.25M18.75 12.8289H2.25M13.5 6.78946C13.5 7.59034 13.1839 8.35842 12.6213 8.92473C12.0587 9.49103 11.2956 9.80918 10.5 9.80918C9.70435 9.80918 8.94129 9.49103 8.37868 8.92473C7.81607 8.35842 7.5 7.59034 7.5 6.78946C7.5 5.98857 7.81607 5.22049 8.37868 4.65419C8.94129 4.08788 9.70435 3.76973 10.5 3.76973C11.2956 3.76973 12.0587 4.08788 12.6213 4.65419C13.1839 5.22049 13.5 5.98857 13.5 6.78946ZM16.5 6.78946H16.508V6.79751H16.5V6.78946ZM4.5 6.78946H4.508V6.79751H4.5V6.78946Z" stroke="#26833C" stroke-width="1.125" stroke-linecap="round" stroke-linejoin="round"/>
</g>
<defs>
<clipPath id="clip0_1_42">
<rect width="21" height="18" fill="white"/>
</clipPath>
</defs>
</svg>
