<svg width="73" height="18" viewBox="0 0 73 18" fill="none" xmlns="http://www.w3.org/2000/svg">
<g clip-path="url(#clip0_1_13)">
<path d="M0.75 15.0937C6.08561 15.0893 11.398 15.8005 16.547 17.2085C17.274 17.4078 18 16.8643 18 16.1053V15.0937M2.25 0.75V1.50493C2.25 1.70515 2.17098 1.89717 2.03033 2.03875C1.88968 2.18033 1.69891 2.25986 1.5 2.25986H0.75M0.75 2.25986V1.8824C0.75 1.25731 1.254 0.75 1.875 0.75H18.75M0.75 2.25986V11.319M18.75 0.75V1.50493C18.75 1.92165 19.086 2.25986 19.5 2.25986H20.25M18.75 0.75H19.125C19.746 0.75 20.25 1.25731 20.25 1.8824V11.6965C20.25 12.3216 19.746 12.8289 19.125 12.8289H18.75M0.75 11.319V11.6965C0.75 11.9968 0.868527 12.2849 1.0795 12.4972C1.29048 12.7096 1.57663 12.8289 1.875 12.8289H2.25M0.75 11.319H1.5C1.69891 11.319 1.88968 11.3986 2.03033 11.5402C2.17098 11.6817 2.25 11.8738 2.25 12.074V12.8289M18.75 12.8289V12.074C18.75 11.8738 18.829 11.6817 18.9697 11.5402C19.1103 11.3986 19.3011 11.319 19.5 11.319H20.25M18.75 12.8289H2.25M13.5 6.78946C13.5 7.59034 13.1839 8.35842 12.6213 8.92473C12.0587 9.49103 11.2956 9.80918 10.5 9.80918C9.70435 9.80918 8.94129 9.49103 8.37868 8.92473C7.81607 8.35842 7.5 7.59034 7.5 6.78946C7.5 5.98857 7.81607 5.22049 8.37868 4.65419C8.94129 4.08788 9.70435 3.76973 10.5 3.76973C11.2956 3.76973 12.0587 4.08788 12.6213 4.65419C13.1839 5.22049 13.5 5.98857 13.5 6.78946ZM16.5 6.78946H16.508V6.79751H16.5V6.78946ZM4.5 6.78946H4.508V6.79751H4.5V6.78946Z" stroke="#26833C" stroke-width="1.125" stroke-linecap="round" stroke-linejoin="round"/>
</g>
<path d="M25.532 9.228L25.664 8.46H26.948C27.18 8.452 27.392 8.408 27.584 8.328C27.784 8.248 27.952 8.132 28.088 7.98C28.224 7.828 28.308 7.648 28.34 7.44C28.396 7.136 28.328 6.9 28.136 6.732C27.952 6.556 27.696 6.468 27.368 6.468H26.444L25.46 12.132H26.48C26.76 12.124 27.024 12.076 27.272 11.988C27.52 11.9 27.728 11.764 27.896 11.58C28.072 11.396 28.18 11.164 28.22 10.884C28.268 10.62 28.24 10.404 28.136 10.236C28.032 10.06 27.88 9.928 27.68 9.84C27.48 9.752 27.248 9.708 26.984 9.708L25.448 9.696L25.616 8.772H27.2C27.576 8.772 27.936 8.82 28.28 8.916C28.632 9.004 28.94 9.144 29.204 9.336C29.468 9.528 29.668 9.772 29.804 10.068C29.94 10.356 29.976 10.704 29.912 11.112C29.832 11.656 29.628 12.108 29.3 12.468C28.98 12.82 28.576 13.08 28.088 13.248C27.608 13.416 27.08 13.5 26.504 13.5H23.54L24.98 5.1H27.656C28.024 5.1 28.364 5.144 28.676 5.232C28.996 5.32 29.272 5.452 29.504 5.628C29.744 5.804 29.92 6.024 30.032 6.288C30.144 6.552 30.172 6.864 30.116 7.224C30.044 7.672 29.86 8.044 29.564 8.34C29.268 8.636 28.9 8.86 28.46 9.012C28.02 9.156 27.552 9.228 27.056 9.228H25.532ZM35.7717 7.98H37.2837L36.3357 13.5H34.8357L35.7717 7.98ZM30.8637 10.74C30.9357 10.188 31.1157 9.696 31.4037 9.264C31.6997 8.832 32.0637 8.488 32.4957 8.232C32.9357 7.976 33.4037 7.852 33.8997 7.86C34.2757 7.86 34.5917 7.94 34.8477 8.1C35.1037 8.26 35.3077 8.476 35.4597 8.748C35.6117 9.012 35.7117 9.316 35.7597 9.66C35.8077 10.004 35.8077 10.364 35.7597 10.74C35.7117 11.132 35.6077 11.504 35.4477 11.856C35.2957 12.2 35.0997 12.504 34.8597 12.768C34.6277 13.032 34.3557 13.24 34.0437 13.392C33.7317 13.536 33.3917 13.608 33.0237 13.608C32.5197 13.608 32.0957 13.48 31.7517 13.224C31.4077 12.96 31.1557 12.612 30.9957 12.18C30.8357 11.74 30.7917 11.26 30.8637 10.74ZM32.4477 10.74C32.4077 11.012 32.4237 11.272 32.4957 11.52C32.5757 11.76 32.7077 11.952 32.8917 12.096C33.0757 12.24 33.3077 12.316 33.5877 12.324C33.7797 12.324 33.9677 12.284 34.1517 12.204C34.3357 12.124 34.5037 12.012 34.6557 11.868C34.8157 11.716 34.9477 11.544 35.0517 11.352C35.1637 11.16 35.2397 10.956 35.2797 10.74C35.3117 10.524 35.3077 10.324 35.2677 10.14C35.2357 9.956 35.1717 9.792 35.0757 9.648C34.9797 9.496 34.8597 9.376 34.7157 9.288C34.5717 9.2 34.4037 9.152 34.2117 9.144C33.9317 9.136 33.6637 9.204 33.4077 9.348C33.1597 9.492 32.9477 9.688 32.7717 9.936C32.6037 10.176 32.4957 10.444 32.4477 10.74ZM39.3595 4.14H40.9075L39.2875 13.5H37.7755L39.3595 4.14ZM45.7795 7.98H47.2915L46.3435 13.5H44.8435L45.7795 7.98ZM40.8715 10.74C40.9435 10.188 41.1235 9.696 41.4115 9.264C41.7075 8.832 42.0715 8.488 42.5035 8.232C42.9435 7.976 43.4115 7.852 43.9075 7.86C44.2835 7.86 44.5995 7.94 44.8555 8.1C45.1115 8.26 45.3155 8.476 45.4675 8.748C45.6195 9.012 45.7195 9.316 45.7675 9.66C45.8155 10.004 45.8155 10.364 45.7675 10.74C45.7195 11.132 45.6155 11.504 45.4555 11.856C45.3035 12.2 45.1075 12.504 44.8675 12.768C44.6355 13.032 44.3635 13.24 44.0515 13.392C43.7395 13.536 43.3995 13.608 43.0315 13.608C42.5275 13.608 42.1035 13.48 41.7595 13.224C41.4155 12.96 41.1635 12.612 41.0035 12.18C40.8435 11.74 40.7995 11.26 40.8715 10.74ZM42.4555 10.74C42.4155 11.012 42.4315 11.272 42.5035 11.52C42.5835 11.76 42.7155 11.952 42.8995 12.096C43.0835 12.24 43.3155 12.316 43.5955 12.324C43.7875 12.324 43.9755 12.284 44.1595 12.204C44.3435 12.124 44.5115 12.012 44.6635 11.868C44.8235 11.716 44.9555 11.544 45.0595 11.352C45.1715 11.16 45.2475 10.956 45.2875 10.74C45.3195 10.524 45.3155 10.324 45.2755 10.14C45.2435 9.956 45.1795 9.792 45.0835 9.648C44.9875 9.496 44.8675 9.376 44.7235 9.288C44.5795 9.2 44.4115 9.152 44.2195 9.144C43.9395 9.136 43.6715 9.204 43.4155 9.348C43.1675 9.492 42.9555 9.688 42.7795 9.936C42.6115 10.176 42.5035 10.444 42.4555 10.74ZM51.8273 10.14C51.8513 9.94 51.8473 9.756 51.8153 9.588C51.7913 9.42 51.7273 9.284 51.6233 9.18C51.5193 9.068 51.3553 9.012 51.1313 9.012C50.9233 9.012 50.7273 9.06 50.5433 9.156C50.3673 9.244 50.2233 9.372 50.1113 9.54C49.9993 9.7 49.9273 9.888 49.8953 10.104L49.3073 13.5H47.7713L48.7193 7.98H50.2553L50.1353 8.772C50.3273 8.484 50.5633 8.26 50.8433 8.1C51.1233 7.94 51.4513 7.86 51.8273 7.86C52.2673 7.852 52.6113 7.944 52.8593 8.136C53.1073 8.328 53.2753 8.584 53.3633 8.904C53.4593 9.216 53.4793 9.572 53.4233 9.972L52.8113 13.5H51.2393L51.8273 10.14ZM55.9552 10.74C55.9152 11.028 55.9392 11.292 56.0272 11.532C56.1152 11.772 56.2592 11.964 56.4592 12.108C56.6672 12.252 56.9192 12.328 57.2152 12.336C57.5752 12.344 57.9152 12.264 58.2352 12.096C58.5632 11.92 58.8312 11.712 59.0392 11.472L58.8232 13.056C58.5912 13.224 58.3192 13.36 58.0072 13.464C57.7032 13.56 57.3672 13.608 56.9992 13.608C56.4392 13.608 55.9472 13.484 55.5232 13.236C55.1072 12.98 54.7952 12.636 54.5872 12.204C54.3872 11.764 54.3232 11.276 54.3952 10.74C54.4672 10.18 54.6632 9.684 54.9832 9.252C55.3032 8.82 55.7072 8.48 56.1952 8.232C56.6832 7.984 57.2192 7.86 57.8032 7.86C58.1552 7.86 58.4752 7.908 58.7632 8.004C59.0512 8.1 59.3032 8.236 59.5192 8.412L59.3032 10.008C59.1592 9.736 58.9512 9.524 58.6792 9.372C58.4152 9.212 58.1192 9.132 57.7912 9.132C57.4792 9.132 57.1912 9.208 56.9272 9.36C56.6712 9.504 56.4552 9.696 56.2792 9.936C56.1112 10.176 56.0032 10.444 55.9552 10.74ZM61.1476 5.844C61.1476 5.588 61.2396 5.38 61.4236 5.22C61.6076 5.052 61.8236 4.968 62.0716 4.968C62.3356 4.968 62.5556 5.052 62.7316 5.22C62.9156 5.38 63.0076 5.588 63.0076 5.844C63.0076 6.092 62.9156 6.3 62.7316 6.468C62.5556 6.636 62.3356 6.72 62.0716 6.72C61.8236 6.72 61.6076 6.636 61.4236 6.468C61.2396 6.3 61.1476 6.092 61.1476 5.844ZM60.9556 7.98H62.4676L61.5196 13.5H60.0316L60.9556 7.98ZM63.568 7.98H66.952L66.712 9.288H63.328L63.568 7.98ZM67.192 5.688C67.128 5.592 67.056 5.52 66.976 5.472C66.904 5.416 66.816 5.384 66.712 5.376C66.576 5.376 66.456 5.42 66.352 5.508C66.248 5.588 66.164 5.7 66.1 5.844C66.036 5.98 65.992 6.128 65.968 6.288L64.732 13.5H63.244L64.528 5.928C64.592 5.544 64.716 5.204 64.9 4.908C65.092 4.612 65.34 4.38 65.644 4.212C65.948 4.044 66.304 3.964 66.712 3.972C67.024 3.972 67.284 4.032 67.492 4.152C67.7 4.264 67.872 4.396 68.008 4.548L67.192 5.688ZM72.9806 7.98L68.0846 16.128H66.4766L68.4206 12.9L67.0286 7.98H68.6726L69.6686 12.372L68.9006 12.336L71.3486 7.98H72.9806Z" fill="#26833C"/>
<defs>
<clipPath id="clip0_1_13">
<rect width="21" height="18" fill="white"/>
</clipPath>
</defs>
</svg>
